<?xml version="1.0" encoding="UTF-8"?>
<svg id="Camada_1" data-name="Camada 1" xmlns="http://www.w3.org/2000/svg" width="500" height="117.11" viewBox="0 0 500 117.11">
  <rect y="16.97" width="500" height="77.65" style="fill: none;"/>
  <path d="M102.34,91.79c0,1.71-.53,2.57-1.59,2.57h-12.58c-1.06,0-3.81-3.88-8.26-11.65-3.76-6.56-6.25-11.3-7.49-14.22-1.24-2.81-1.95-4.38-2.13-4.7-1.09-1.82-2.37-2.79-3.83-2.9-.44-.04-1.66-.05-3.66-.05-4.59,0-6.89.57-6.89,1.7,0,3.35.12,8.37.36,15.04.24,6.67.36,11.67.36,14.98,0,1.2-.46,1.8-1.37,1.8-.69,0-1.73-.05-3.12-.16-1.39-.11-2.42-.16-3.12-.16-.66,0-1.63.05-2.93.16-1.29.11-2.27.16-2.93.16-.91,0-1.37-.42-1.37-1.26,0-4.01.19-10.04.57-18.07s.57-14.06.57-18.07c0-4.23-.19-10.58-.57-19.06s-.57-14.83-.57-19.06c0-.8.46-1.2,1.37-1.2.66,0,1.66.05,3.01.16,1.35.11,2.37.16,3.06.16.66,0,1.64-.05,2.95-.16s2.3-.16,2.95-.16c.84,0,1.26.33,1.26.98,0,3.1-.1,7.77-.3,14-.2,6.23-.3,10.92-.3,14.05,0,1.42.09,2.32.27,2.68.29.66,1.04.98,2.24.98,7.07,0,12.25-1.31,15.53-3.94,2.81-2.33,5.47-6.62,7.98-12.85,1.82-4.89,3.65-9.77,5.47-14.66.25-.62.82-1.04,1.7-1.26.58-.15,2.52-.22,5.8-.22,4.01,0,6.02.57,6.02,1.7,0,.66-.84,3.61-2.52,8.86-1.97,6.12-4.52,11.52-7.66,16.19-2.08,3.17-4.83,6.36-8.26,9.57-.88.77-1.31,1.46-1.31,2.08,0,.66,1.48,3.92,4.43,9.79,2.55,5.07,4.87,9.13,6.95,12.2,2.3,2.81,5.5,7.13,9.62,12.96.18.33.27.67.27,1.04Z" style="fill: #fff;"/>
  <path d="M122.69,28.95c0,4.48-2.5,6.73-7.49,6.73s-7.6-2.24-7.6-6.73c0-2,.78-3.66,2.35-4.98,1.46-1.24,3.21-1.86,5.25-1.86s3.8.64,5.28,1.91c1.48,1.28,2.21,2.92,2.21,4.92ZM122.3,43.77c0,2.81-.17,7.05-.52,12.71-.35,5.67-.52,9.93-.52,12.77,0,2.66.05,6.64.16,11.95s.16,9.27.16,11.89c0,.77-.33,1.15-.98,1.15h-10.66c-.77,0-1.15-.75-1.15-2.24,0-2.52.06-6.3.19-11.35.13-5.05.19-8.85.19-11.4,0-2.84-.21-7.11-.63-12.8-.42-5.69-.63-9.95-.63-12.8,0-.62.38-.93,1.15-.93.66,0,1.67.09,3.04.27,1.37.18,2.4.27,3.09.27s1.72-.09,3.09-.27c1.37-.18,2.4-.27,3.09-.27.62,0,.93.35.93,1.04Z" style="fill: #fff;"/>
  <path d="M181.31,93.27c0,.8-.36,1.2-1.09,1.2-1.2,0-3-.02-5.39-.05-2.39-.04-4.18-.05-5.39-.05-.66,0-.98-.53-.98-1.59,0-1.79.05-4.5.16-8.15.11-3.65.16-6.38.16-8.2,0-1.46-.02-3.64-.05-6.54-.04-2.9-.05-5.08-.05-6.54,0-4.16-.6-7.09-1.8-8.8-1.46-2.04-4.16-3.06-8.09-3.06-1.82,0-4.36,1.02-7.6,3.06-3.43,2.15-5.14,4.06-5.14,5.74v32.81c0,.91-.35,1.37-1.04,1.37-1.17,0-2.92-.02-5.25-.05-2.33-.04-4.08-.05-5.25-.05-.77,0-1.15-.42-1.15-1.26,0-2.88.05-7.2.14-12.96.09-5.76.14-10.1.14-13.02,0-7.77-.82-14.93-2.46-21.49-.11-.33-.16-.56-.16-.71,0-.36.24-.62.71-.77.25-.04,2.34-.37,6.26-1.01,3.92-.64,5.97-.96,6.15-.96.22,0,.36.29.44.88.18,2.26.6,4.54,1.26,6.84,1.9-1.49,4.39-3.35,7.49-5.58,3.83-2.33,7.53-3.5,11.1-3.5,6.85,0,11.54,1.99,14.05,5.96,1.86,2.92,2.79,7.64,2.79,14.16,0,1.13-.03,2.86-.08,5.2-.05,2.33-.08,4.08-.08,5.25,0,2.44.04,6.09.11,10.94.07,4.85.11,8.5.11,10.94Z" style="fill: #fff;"/>
  <path d="M244.26,18.07c0,4.7-.21,11.75-.63,21.14-.42,9.39-.63,16.42-.63,21.08,0,14.4.31,25.3.93,32.7l.05.71c.04.37-.46.6-1.48.71-.69.07-1.68.07-2.95,0-1.53-.11-2.24-.16-2.13-.16-.55,0-1.35.05-2.41.16-1.06.11-1.86.16-2.41.16-.51,0-.81-1.27-.9-3.8-.09-2.53-.23-3.82-.41-3.86-.22.11-.49.35-.82.71-5,5.4-10.74,8.09-17.23,8.09-7.36,0-13.42-2.81-18.16-8.42-4.48-5.29-6.73-11.67-6.73-19.14s2.26-14.29,6.78-19.58c4.74-5.54,10.92-8.31,18.54-8.31,4.59,0,8.6,1.35,12.03,4.05,1.57,1.35,3.12,2.72,4.65,4.1.29-.11.44-.36.44-.77v-17.72c0-1.2-.05-3.03-.16-5.47-.11-2.44-.16-4.28-.16-5.52,0-.88.29-1.31.88-1.31,1.35,0,3.35-.12,6.02-.36,2.66-.24,4.65-.36,5.96-.36.62,0,.93.38.93,1.15ZM230.59,67.84c0-4.38-1.35-8.22-4.05-11.54-2.88-3.54-6.45-5.3-10.72-5.3-4.48,0-8.19,1.75-11.1,5.25-2.77,3.28-4.16,7.22-4.16,11.81s1.44,8.19,4.32,11.43c2.95,3.43,6.6,5.14,10.94,5.14s7.98-1.73,10.83-5.2c2.62-3.24,3.94-7.11,3.94-11.59Z" style="fill: #fff;"/>
  <path d="M323.06,93.1c0,.84-.55,1.26-1.64,1.26-.62,0-1.58-.05-2.87-.16-1.29-.11-2.27-.16-2.93-.16-.69,0-1.74.05-3.14.16-1.4.11-2.45.16-3.14.16-.84,0-1.26-.42-1.26-1.26,0-3.28.1-8.2.3-14.77.2-6.56.3-11.48.3-14.77,0-1.42-.42-2.24-1.26-2.46-1.09-.29-7.4-.44-18.92-.44s-17.79.15-18.92.44c-.8.22-1.2,1.04-1.2,2.46,0,3.21.09,8.04.27,14.49.18,6.45.27,11.28.27,14.49,0,1.2-.46,1.8-1.37,1.8-.69,0-1.73-.05-3.12-.16-1.39-.11-2.42-.16-3.12-.16-.66,0-1.63.05-2.93.16-1.29.11-2.27.16-2.93.16-.91,0-1.37-.42-1.37-1.26,0-4.01.19-10.04.57-18.07s.57-14.06.57-18.07c0-4.23-.19-10.58-.57-19.06s-.57-14.83-.57-19.06c0-.8.46-1.2,1.37-1.2.66,0,1.66.05,3.01.16,1.35.11,2.37.16,3.06.16.66,0,1.68-.05,3.06-.16,1.38-.11,2.41-.16,3.06-.16.84,0,1.26.33,1.26.98,0,3.14-.14,7.85-.41,14.14s-.41,11-.41,14.14c0,1.02.38,1.64,1.15,1.86.91.33,7.33.49,19.25.49s18.05-.16,19.14-.49c.84-.22,1.26-1,1.26-2.35,0-3.06-.1-7.67-.3-13.84-.2-6.16-.3-10.77-.3-13.84,0-.73.42-1.09,1.26-1.09.69,0,1.7.05,3.04.16,1.33.11,2.34.16,3.04.16.66,0,1.64-.05,2.95-.16s2.3-.16,2.95-.16c.95,0,1.42.4,1.42,1.2,0,4.23-.18,10.58-.55,19.06-.37,8.48-.55,14.83-.55,19.06,0,4.01.2,10.04.6,18.07.4,8.04.6,14.06.6,18.07Z" style="fill: #fff;"/>
  <path d="M348.38,28.95c0,4.48-2.5,6.73-7.49,6.73s-7.6-2.24-7.6-6.73c0-2,.78-3.66,2.35-4.98,1.46-1.24,3.21-1.86,5.25-1.86s3.8.64,5.28,1.91c1.48,1.28,2.21,2.92,2.21,4.92ZM348,43.77c0,2.81-.17,7.05-.52,12.71-.35,5.67-.52,9.93-.52,12.77,0,2.66.05,6.64.16,11.95s.16,9.27.16,11.89c0,.77-.33,1.15-.98,1.15h-10.66c-.77,0-1.15-.75-1.15-2.24,0-2.52.06-6.3.19-11.35.13-5.05.19-8.85.19-11.4,0-2.84-.21-7.11-.63-12.8-.42-5.69-.63-9.95-.63-12.8,0-.62.38-.93,1.15-.93.66,0,1.67.09,3.04.27,1.37.18,2.4.27,3.09.27s1.72-.09,3.09-.27c1.37-.18,2.4-.27,3.09-.27.62,0,.93.35.93,1.04Z" style="fill: #fff;"/>
  <path d="M406.02,58.16c0,5.14-.16,8.13-.49,8.97-.55,1.64-3.5,6.44-8.86,14.38-5.51,8.13-8.79,12.41-9.84,12.85-.51.22-2.04.33-4.59.33s-4.05-.11-4.81-.33c-1.02-.33-4.36-4.45-10.01-12.36-5.51-7.69-8.59-12.38-9.24-14.05-.88-2.3-1.31-5.85-1.31-10.66,0-1.49.04-3.74.11-6.73.07-2.99.11-5.23.11-6.73,0-.8.4-1.2,1.2-1.2,1.2,0,3,.05,5.39.16,2.39.11,4.18.16,5.39.16.66,0,.98.36.98,1.09,0,1.17-.07,2.89-.22,5.17-.15,2.28-.22,4-.22,5.17,0,3.35.18,6.42.55,9.19.18,1.39,2.03,4.78,5.55,10.17,3.52,5.4,5.7,8.09,6.54,8.09s2.79-2.64,5.96-7.93c3.13-5.18,4.81-8.44,5.03-9.79.29-1.82.44-4.96.44-9.41,0-1.2-.12-3.01-.36-5.41-.24-2.41-.36-4.21-.36-5.41,0-.55.27-.82.82-.82,1.2,0,2.97-.06,5.3-.19,2.33-.13,4.08-.19,5.25-.19s1.7,5.16,1.7,15.48Z" style="fill: #fff;"/>
  <path d="M461.8,64.99c0,2.7-1.17,4.5-3.5,5.41-1.57.58-12.85,1.66-33.85,3.23.47,3.21,2.24,5.94,5.3,8.2,2.92,2.15,6.05,3.23,9.41,3.23,5.76,0,11.05-1.86,15.86-5.58.58-.47,1.17-.95,1.75-1.42.29,0,.48.04.57.11.09.07.77,1.34,2.05,3.8,1.28,2.46,1.91,3.78,1.91,3.96,0,.22-.29.64-.88,1.26-5.36,5.69-12.23,8.53-20.62,8.53s-15.2-2.52-20.23-7.57c-5.03-5.05-7.55-11.79-7.55-20.21,0-7.51,2.41-14.05,7.22-19.63,5.07-5.8,11.28-8.7,18.65-8.7,6.85,0,12.58,2.52,17.17,7.55,4.48,4.89,6.73,10.83,6.73,17.83ZM448.79,61.66c0-3.03-1.19-5.71-3.58-8.04-2.39-2.33-5.08-3.5-8.07-3.5-3.35,0-6.33,1.35-8.94,4.05-2.61,2.7-3.91,5.72-3.91,9.08,0,.77.66,1.15,1.97,1.15,5.4,0,11.85-.55,19.36-1.64,2.11-.29,3.17-.66,3.17-1.09Z" style="fill: #fff;"/>
</svg>