<?xml version="1.0" encoding="UTF-8"?>
<svg id="Camada_1" data-name="Camada 1" xmlns="http://www.w3.org/2000/svg" width="167.04" height="74.93" viewBox="0 0 167.04 74.93">
  <g>
    <rect x="-39.86" y="2.55" width="245.04" height="40.51" style="fill: none;"/>
    <path d="M23.4,14.61c0,3.2-.91,5.97-2.73,8.31-1.98,2.54-4.52,3.81-7.62,3.81-.59,0-1.48-.02-2.67-.07-1.19-.05-2.08-.07-2.67-.07-.54,0-1.34.02-2.42.07-1.08.05-1.88.07-2.42.07-.29,0-.43-.14-.43-.43,0-1.24.05-3.12.15-5.62.1-2.51.15-4.39.15-5.64,0-1.32-.05-3.31-.14-5.96-.09-2.65-.14-4.64-.14-5.96,0-.24.15-.36.44-.36.42,0,1.05,0,1.89.02.84.01,1.47.02,1.89.02.39,0,.98,0,1.78-.02.8-.01,1.4-.02,1.81-.02,3.95,0,6.9.75,8.83,2.24,1.39,1.07,2.47,2.51,3.23,4.32.72,1.69,1.08,3.45,1.08,5.3ZM19.22,14.61c0-2.46-.7-4.47-2.1-6.02-1.46-1.61-3.41-2.41-5.84-2.41-2.02,0-2.83-.01-2.44-.03-1.33.07-2,.31-2,.73,0,.88-.02,2.19-.06,3.94-.04,1.75-.06,3.06-.06,3.94s.02,2.17.06,3.9c.04,1.73.06,3.03.06,3.9,0,.43.68.68,2.05.75-.18-.01.65-.02,2.49-.02,1.31,0,2.35-.14,3.13-.41.96-.34,1.82-.97,2.58-1.9,1.42-1.73,2.14-3.86,2.14-6.37Z" style="fill: #fff;"/>
    <path d="M41.62,18.41c0,2.38-.78,4.42-2.34,6.1-1.59,1.74-3.57,2.61-5.93,2.61s-4.35-.87-5.95-2.6c-1.56-1.67-2.34-3.7-2.34-6.08s.78-4.41,2.34-6.08c1.61-1.71,3.59-2.56,5.95-2.56s4.32.85,5.91,2.56c1.57,1.66,2.36,3.68,2.36,6.05ZM38.02,18.44c0-1.39-.43-2.57-1.28-3.55-.89-1.04-2.02-1.56-3.38-1.56s-2.5.51-3.4,1.54c-.86.99-1.28,2.18-1.28,3.57s.43,2.55,1.3,3.55c.91,1.06,2.04,1.59,3.38,1.59s2.48-.53,3.38-1.59c.85-1,1.28-2.19,1.28-3.55Z" style="fill: #fff;"/>
    <path d="M58.51,17.55c0,.84-.37,1.41-1.09,1.69-.49.18-4.02.52-10.58,1.01.15,1,.7,1.86,1.66,2.56.91.67,1.89,1.01,2.94,1.01,1.8,0,3.45-.58,4.96-1.74.18-.15.36-.3.55-.44.09,0,.15.01.18.03.03.02.24.42.64,1.19.4.77.6,1.18.6,1.24,0,.07-.09.2-.27.39-1.67,1.78-3.82,2.67-6.44,2.67s-4.75-.79-6.32-2.37-2.36-3.68-2.36-6.31c0-2.35.75-4.39,2.26-6.14,1.58-1.81,3.53-2.72,5.83-2.72,2.14,0,3.93.79,5.37,2.36,1.4,1.53,2.1,3.38,2.1,5.57ZM54.44,16.51c0-.95-.37-1.78-1.12-2.51-.75-.73-1.59-1.09-2.52-1.09-1.05,0-1.98.42-2.79,1.26-.82.84-1.22,1.79-1.22,2.84,0,.24.21.36.62.36,1.69,0,3.7-.17,6.05-.51.66-.09.99-.21.99-.34Z" style="fill: #fff;"/>
    <path d="M86.74,18.51c0,2.3-.73,4.3-2.19,6-1.53,1.79-3.42,2.68-5.69,2.68-1.41,0-2.65-.44-3.71-1.32-.48-.44-.96-.89-1.44-1.35-.07.03-.11.13-.14.27-.01.07-.02.71-.02,1.91l-.02,4.82c0,.36-.13.55-.39.55-1.75,0-2.79-.02-3.11-.07-.26-.03-.39-.18-.39-.44,0-1.46.01-3.65.03-6.56.02-2.92.03-5.1.03-6.56,0-2.68-.17-5.19-.51-7.54-.02-.14-.03-.23-.03-.27,0-.12.06-.21.17-.24.43-.02,1.07-.09,1.9-.19,1.12-.21,1.74-.31,1.88-.31.19,0,.32.34.38,1.03.04.46.06.91.09,1.35,0,.09.03.18.1.27.08-.05.17-.12.27-.24,1.59-1.63,3.21-2.44,4.84-2.44,2.26,0,4.16.88,5.71,2.65,1.49,1.7,2.24,3.7,2.24,6ZM82.74,18.44c0-1.37-.43-2.57-1.28-3.61-.9-1.1-2.02-1.66-3.37-1.66s-2.4.57-3.25,1.71c-.78,1.03-1.16,2.22-1.16,3.59s.4,2.6,1.2,3.62c.88,1.11,1.99,1.66,3.35,1.66s2.39-.58,3.28-1.73c.82-1.07,1.23-2.27,1.23-3.59Z" style="fill: #fff;"/>
    <path d="M106,11.26s-.02.15-.05.31c-.44,2.61-.67,4.86-.67,6.75,0,.11.14,2.67.43,7.67l.02.24c.01.33-.14.5-.45.5s-.79.04-1.42.11c-.63.07-1.1.11-1.41.11-.22,0-.38-.4-.5-1.2-.11-.8-.22-1.2-.33-1.2-.07,0-.38.22-.92.67-.67.55-1.3.96-1.88,1.25-.9.46-1.8.68-2.7.68-2.21,0-4.07-.88-5.59-2.65-1.44-1.69-2.15-3.65-2.15-5.9,0-2.53.72-4.62,2.17-6.27,1.51-1.72,3.51-2.58,5.98-2.58,1.74,0,3.26.6,4.56,1.81.19.23.5.56.91.99.03.03.07.05.1.05.07,0,.17-.36.29-1.08.13-.72.29-1.08.48-1.08.31,0,.88.09,1.73.26.93.21,1.4.39,1.4.55ZM101.64,18.41c0-1.4-.42-2.6-1.25-3.61-.88-1.08-2-1.62-3.37-1.62s-2.51.54-3.42,1.61c-.88,1.03-1.32,2.23-1.32,3.62s.44,2.58,1.32,3.59c.91,1.06,2.05,1.59,3.42,1.59s2.45-.54,3.35-1.62c.84-1.01,1.26-2.2,1.26-3.55Z" style="fill: #fff;"/>
    <path d="M118.56,10.68c0,1.25-.08,2.39-.26,3.42-.03.26-.15.39-.34.39-.24,0-.6-.03-1.08-.08-.48-.05-.85-.08-1.1-.08-1.44,0-2.35.4-2.75,1.21-.24.49-.36,1.51-.36,3.06v1.88c0,.64.03,1.61.08,2.91.05,1.3.08,2.27.08,2.91,0,.31-.13.46-.39.46-.35,0-.89,0-1.61-.02-.72-.01-1.25-.02-1.61-.02-.26,0-.39-.14-.39-.43,0-.92.01-2.31.04-4.17.03-1.86.04-3.25.04-4.19,0-2.81-.26-5.08-.79-6.78-.02-.09-.03-.16-.03-.21,0-.14.07-.23.22-.29.42-.05,1.01-.11,1.78-.21,1.23-.23,1.8-.34,1.71-.34.18,0,.3.34.36,1.01.06.67.16,1.01.31,1.01.02,0,.05-.01.08-.03.47-.3.93-.59,1.4-.89.51-.31,1.04-.54,1.57-.68.44-.14,1.01-.21,1.71-.21.89,0,1.33.12,1.33.36Z" style="fill: #fff;"/>
    <path d="M137.05,11.26s-.02.15-.05.31c-.44,2.61-.67,4.86-.67,6.75,0,.11.14,2.67.43,7.67l.02.24c.01.33-.14.5-.45.5s-.79.04-1.42.11c-.63.07-1.1.11-1.41.11-.22,0-.38-.4-.5-1.2-.11-.8-.22-1.2-.33-1.2-.07,0-.38.22-.92.67-.67.55-1.3.96-1.88,1.25-.9.46-1.8.68-2.7.68-2.21,0-4.07-.88-5.59-2.65-1.44-1.69-2.15-3.65-2.15-5.9,0-2.53.72-4.62,2.17-6.27,1.51-1.72,3.51-2.58,5.98-2.58,1.74,0,3.26.6,4.56,1.81.19.23.5.56.91.99.03.03.07.05.1.05.07,0,.17-.36.29-1.08.13-.72.29-1.08.48-1.08.31,0,.88.09,1.73.26.93.21,1.4.39,1.4.55ZM132.69,18.41c0-1.4-.42-2.6-1.25-3.61-.88-1.08-2-1.62-3.37-1.62s-2.51.54-3.42,1.61c-.88,1.03-1.32,2.23-1.32,3.62s.44,2.58,1.32,3.59c.91,1.06,2.05,1.59,3.42,1.59s2.45-.54,3.35-1.62c.84-1.01,1.26-2.2,1.26-3.55Z" style="fill: #fff;"/>
    <path d="M164.07,18.41c0,2.38-.78,4.42-2.34,6.1-1.59,1.74-3.57,2.61-5.93,2.61s-4.35-.87-5.95-2.6c-1.56-1.67-2.34-3.7-2.34-6.08s.78-4.41,2.34-6.08c1.61-1.71,3.59-2.56,5.95-2.56s4.32.85,5.91,2.56c1.57,1.66,2.36,3.68,2.36,6.05ZM160.46,18.44c0-1.39-.43-2.57-1.28-3.55-.89-1.04-2.02-1.56-3.38-1.56s-2.5.51-3.4,1.54c-.86.99-1.28,2.18-1.28,3.57s.43,2.55,1.3,3.55c.91,1.06,2.04,1.59,3.38,1.59s2.48-.53,3.38-1.59c.85-1,1.28-2.19,1.28-3.55Z" style="fill: #fff;"/>
  </g>
  <g>
    <rect x="-26.05" y="29.55" width="245.04" height="45.38" style="fill: none;"/>
    <path d="M72.44,59.31c0,3.51-1.06,6.53-3.18,9.05-2.24,2.64-5.09,3.97-8.54,3.97-1.29,0-3.23-.03-5.83-.09-2.59-.06-4.54-.09-5.83-.09-.95,0-2.38.04-4.28.12-1.91.08-3.34.12-4.28.12-.5,0-.76-.23-.76-.7,0-2.22.11-5.56.32-10.01.21-4.45.32-7.79.32-10.01,0-2.34-.11-5.86-.32-10.55-.21-4.69-.32-8.21-.32-10.55,0-.44.25-.67.76-.67,1.8,0,4.5.01,8.11.03,3.61.02,6.33.03,8.14.03,4.24,0,7.62.79,10.14,2.36,3.07,1.92,4.6,4.89,4.6,8.93,0,1.39-.4,2.84-1.21,4.34-.81,1.5-1.79,2.64-2.94,3.41-.59.38-.88.64-.88.76s.29.34.88.67c1.53.85,2.76,2.09,3.69,3.74.93,1.65,1.39,3.36,1.39,5.13ZM63.93,41.94c0-2.85-1.27-4.76-3.81-5.75-1.53-.58-4.05-.88-7.54-.88s-5.09.25-5.09.76c0,.67-.03,1.67-.09,3s-.09,2.34-.09,3.03c0,.46,0,1.18.03,2.15.02.97.03,1.7.03,2.18,0,.59,2.28.88,6.84.88,6.48,0,9.72-1.79,9.72-5.36ZM64.75,59.01c0-2.46-1.1-4.13-3.3-5-1.39-.56-3.56-.85-6.51-.85-5.09,0-7.63.27-7.63.82v4.96c0,.73.02,1.84.06,3.33.04,1.49.06,2.61.06,3.36,0,.2.65.35,1.94.45,1.29.1,3.21.15,5.75.15,3.19,0,5.48-.41,6.87-1.24,1.84-1.09,2.75-3.09,2.75-5.99Z" style="fill: #fff;"/>
    <path d="M103.19,56.13c0,1.49-.65,2.49-1.94,3-.87.32-7.11.92-18.74,1.79.26,1.78,1.24,3.29,2.94,4.54,1.61,1.19,3.35,1.79,5.21,1.79,3.19,0,6.12-1.03,8.78-3.09.32-.26.65-.52.97-.79.16,0,.27.02.32.06.05.04.43.74,1.14,2.1.71,1.36,1.06,2.09,1.06,2.19,0,.12-.16.35-.48.7-2.97,3.15-6.77,4.72-11.41,4.72s-8.42-1.4-11.2-4.19c-2.79-2.79-4.18-6.52-4.18-11.19,0-4.16,1.33-7.78,4-10.87,2.8-3.21,6.25-4.81,10.32-4.81,3.79,0,6.96,1.39,9.51,4.18,2.48,2.7,3.72,5.99,3.72,9.87ZM95.99,54.29c0-1.67-.66-3.16-1.98-4.45-1.32-1.29-2.81-1.94-4.46-1.94-1.86,0-3.51.75-4.95,2.24-1.44,1.49-2.17,3.17-2.17,5.03,0,.42.36.64,1.09.64,2.99,0,6.56-.3,10.72-.91,1.17-.16,1.76-.36,1.76-.61Z" style="fill: #fff;"/>
    <path d="M153.45,71.27c0,.79-.23,1.18-.7,1.18-.3,0-.76-.03-1.38-.09-.62-.06-1.08-.09-1.41-.09-.34,0-.86.02-1.54.06-.69.04-1.2.06-1.54.06-.42,0-.64-.47-.64-1.42s.04-2.32.11-4.16c.07-1.85.11-3.23.11-4.16,0-5.11-.02-7.95-.06-8.54-.16-2.08-.59-3.51-1.27-4.3-.79-.85-2.19-1.27-4.21-1.27-1.27,0-2.71.61-4.3,1.82-1.66,1.27-2.51,2.52-2.57,3.75-.08,1.57-.12,4.45-.12,8.63,0,.99.04,2.47.12,4.45.08,1.98.12,3.46.12,4.45,0,.54-.18.82-.54.82s-.89-.03-1.59-.09c-.7-.06-1.23-.09-1.59-.09-.32,0-.8.02-1.42.06-.63.04-1.1.06-1.42.06-.4,0-.61-.29-.61-.88,0-.97.03-2.43.09-4.37.06-1.95.09-3.41.09-4.37v-7.3c0-2.28-.27-3.91-.82-4.87-.77-1.37-2.23-2.06-4.39-2.06-1.27,0-2.79.54-4.54,1.6-1.94,1.17-2.91,2.35-2.91,3.54v8.84c0,1.01,0,2.51.03,4.51.02,2,.03,3.49.03,4.48,0,.59-.23.88-.7.88h-5.63c-.4,0-.61-.27-.61-.82,0-1.63,0-4.09.03-7.37.02-3.28.03-5.74.03-7.37,0-3.69-.39-7.38-1.18-11.05-.06-.26-.09-.47-.09-.64,0-.26.09-.41.27-.45.75-.08,1.84-.23,3.27-.45.67-.2,1.67-.42,3-.67l.24-.03c.24,0,.47.71.68,2.13.21,1.42.4,2.13.56,2.13l1.51-1.33c1.19-1.03,2.38-1.85,3.57-2.45,1.71-.89,3.43-1.33,5.15-1.33,4.64,0,7.6,1.9,8.87,5.69,1.25-1.61,2.8-2.95,4.66-4,1.98-1.13,3.94-1.7,5.87-1.7,3.73,0,6.32,1.09,7.75,3.27,1.03,1.61,1.54,4.17,1.54,7.66,0,.67-.02,1.7-.06,3.09-.04,1.39-.06,2.42-.06,3.09,0,1.27.03,3.18.09,5.74.06,2.55.09,4.47.09,5.74Z" style="fill: #fff;"/>
  </g>
</svg>